<?xml version="1.0" encoding="UTF-8"?>
<!DOCTYPE svg PUBLIC "-//W3C//DTD SVG 1.1//EN" "http://www.w3.org/Graphics/SVG/1.1/DTD/svg11.dtd">
<svg xmlns="http://www.w3.org/2000/svg" version="1.1" width="1920px" height="7919px" style="shape-rendering:geometricPrecision; text-rendering:geometricPrecision; image-rendering:optimizeQuality; fill-rule:evenodd; clip-rule:evenodd" xmlns:xlink="http://www.w3.org/1999/xlink">
<g><path id="first-line" style="opacity:1" fill="red" d="M 1055.5,90.5 C 1056.5,90.5 1057.5,90.5 1058.5,90.5C 1058.5,362.167 1058.5,633.833 1058.5,905.5C 1057.5,905.5 1056.5,905.5 1055.5,905.5C 1055.5,633.833 1055.5,362.167 1055.5,90.5 Z"/></g>
<use  class="my-animate" stroke="red" stroke-width="2" xlink:href="#first-line"/>
<g><path id="second-line" style="opacity:1" fill="red" d="M 209.5,903.5 C 491.167,903.5 772.833,903.5 1054.5,903.5C 1054.5,904.833 1054.5,906.167 1054.5,907.5C 774.5,907.5 494.5,907.5 214.5,907.5C 214.5,1267.17 214.5,1626.83 214.5,1986.5C 712.833,1986.5 1211.17,1986.5 1709.5,1986.5C 1709.5,2231.17 1709.5,2475.83 1709.5,2720.5C 1210.83,2720.5 712.167,2720.5 213.5,2720.5C 213.5,2963.17 213.5,3205.83 213.5,3448.5C 562.833,3448.5 912.167,3448.5 1261.5,3448.5C 1261.5,3580.5 1261.5,3712.5 1261.5,3844.5C 912.5,3844.5 563.5,3844.5 214.5,3844.5C 214.5,4211.83 214.5,4579.17 214.5,4946.5C 712.833,4946.5 1211.17,4946.5 1709.5,4946.5C 1709.5,5180.17 1709.5,5413.83 1709.5,5647.5C 1210.83,5647.5 712.167,5647.5 213.5,5647.5C 213.5,5890.17 213.5,6132.83 213.5,6375.5C 563.5,6375.5 913.5,6375.5 1263.5,6375.5C 1263.5,6507.5 1263.5,6639.5 1263.5,6771.5C 913.833,6771.5 564.167,6771.5 214.5,6771.5C 214.5,7108.17 214.5,7444.83 214.5,7781.5C 212.833,7781.5 211.167,7781.5 209.5,7781.5C 209.5,7443.17 209.5,7104.83 209.5,6766.5C 559.5,6766.5 909.5,6766.5 1259.5,6766.5C 1259.5,6637.83 1259.5,6509.17 1259.5,6380.5C 909.167,6380.5 558.833,6380.5 208.5,6380.5C 208.5,6134.83 208.5,5889.17 208.5,5643.5C 707.833,5643.5 1207.17,5643.5 1706.5,5643.5C 1706.5,5412.83 1706.5,5182.17 1706.5,4951.5C 1207.5,4951.5 708.5,4951.5 209.5,4951.5C 209.5,4580.83 209.5,4210.17 209.5,3839.5C 558.833,3839.5 908.167,3839.5 1257.5,3839.5C 1257.5,3710.83 1257.5,3582.17 1257.5,3453.5C 908.167,3453.67 558.833,3453.5 209.5,3453C 208.334,3207.9 208.167,2962.74 209,2717.5C 708.097,2716.5 1207.26,2716.17 1706.5,2716.5C 1706.5,2474.83 1706.5,2233.17 1706.5,1991.5C 1207.5,1991.5 708.5,1991.5 209.5,1991.5C 209.5,1628.83 209.5,1266.17 209.5,903.5 Z"/></g>
<use class="my-animate"  stroke="red" stroke-width="2" xlink:href="#second-line"/>
</svg>
