<svg xmlns="http://www.w3.org/2000/svg" viewBox="0 0 2027.22 116.57"><defs><style>.cls-1{fill:#fff;}</style></defs><g id="Layer_2" data-name="Layer 2"><g id="Layer_1-2" data-name="Layer 1"><path class="cls-1" d="M1.85,116.57,0,111.92c.07,0,6.86-2.73,18.85-7.19l1.75,4.69C8.67,113.86,1.91,116.54,1.85,116.57Zm37.55-14-1.69-4.71c6.17-2.21,12.53-4.46,18.93-6.69l1.64,4.72C51.9,98.09,45.55,100.34,39.4,102.55ZM77.22,89.38l-1.6-4.73c6.31-2.13,12.71-4.26,19-6.33l1.56,4.75C89.9,85.13,83.52,87.26,77.22,89.38Zm38-12.45-1.51-4.77c6.35-2,12.79-4,19.14-6L134.35,71C128,72.91,121.59,74.92,115.25,76.93Zm1910.87-5.32s-4.73-1.06-13.25-2.85l1-4.9c8.56,1.8,13.28,2.87,13.32,2.88Zm-1002.78-.77h-2.18v-5h2.17c5.91,0,11.89,0,17.79-.12l.07,5C1035.28,70.8,1029.27,70.84,1023.34,70.84Zm-22.21-.18c-6.61-.12-13.35-.28-20-.49l.16-5c6.65.21,13.37.37,20,.49Zm60.1-.38-.16-5c6.64-.2,13.34-.45,19.94-.76l.23,5C1074.62,69.82,1067.88,70.08,1061.23,70.28Zm-100.15-.9c-6.58-.31-13.3-.66-20-1.07l.3-5c6.65.4,13.35.76,19.91,1.07Zm140.16-1-.31-5c6.62-.41,13.31-.89,19.9-1.42l.4,5C1114.61,67.53,1107.89,68,1101.24,68.42ZM921.15,67c-6.59-.49-13.29-1-19.93-1.61l.43-5C908.27,61,915,61.5,921.52,62Zm220-1.74-.48-5c6.61-.64,13.28-1.35,19.84-2.1l.56,5C1154.52,63.88,1147.82,64.59,1141.18,65.23ZM153.5,65.17l-1.43-4.79c6.43-1.91,12.91-3.8,19.25-5.62l1.38,4.8C166.37,61.38,159.91,63.27,153.5,65.17Zm1839.77-.43c-6.4-1.28-13-2.57-19.65-3.83l.94-4.91c6.65,1.27,13.27,2.56,19.68,3.84ZM881.3,63.5c-6.54-.65-13.23-1.36-19.89-2.1l.56-5c6.63.74,13.3,1.44,19.83,2.09ZM1181,60.68l-.65-5c6.56-.87,13.21-1.81,19.75-2.78l.74,4.94C1194.26,58.87,1187.59,59.81,1181,60.68ZM841.55,59.06c-6.53-.8-13.21-1.66-19.84-2.55l.67-5c6.61.89,13.26,1.75,19.78,2.55ZM1954,57.23c-6.46-1.19-13.09-2.38-19.69-3.54l.86-4.92c6.62,1.16,13.26,2.35,19.73,3.54Zm-733.33-2.48-.83-4.93c6.54-1.1,13.15-2.26,19.65-3.47l.91,4.92C1233.82,52.48,1227.19,53.65,1220.62,54.75ZM192,54.14l-1.33-4.82c6.44-1.77,12.95-3.54,19.35-5.23l1.28,4.83C204.87,50.61,198.37,52.37,192,54.14Zm610-.39c-6.47-.93-13.12-1.93-19.78-3l.77-4.94c6.63,1,13.27,2,19.73,2.94Zm1112.64-3.46c-6.57-1.1-13.21-2.2-19.74-3.26l.8-4.93c6.54,1,13.19,2.15,19.77,3.26ZM762.38,47.67c-6.46-1.05-13.09-2.16-19.73-3.29l.85-4.93c6.62,1.13,13.24,2.24,19.68,3.29ZM1260,47.44l-1-4.9c6.47-1.32,13-2.72,19.51-4.16l1.08,4.88C1273.11,44.71,1266.52,46.11,1260,47.44Zm615-3.53c-6.54-1-13.2-2-19.77-3L1856,36c6.58,1,13.25,2,19.81,3Zm-1644.43,0-1.23-4.85c6.51-1.65,13.06-3.27,19.46-4.82L250,39.09C243.63,40.64,237.1,42.25,230.61,43.9Zm492.35-3q-9.87-1.75-19.67-3.57l.91-4.92Q714,34.26,723.84,36Zm576.18-2.19L1298,33.89l4.79-1.17c4.8-1.17,9.76-2.32,14.73-3.41l1.07,4.88c-4.93,1.08-9.85,2.22-14.61,3.39Zm536.33-.69c-6.63-.93-13.3-1.85-19.82-2.72l.67-5c6.53.87,13.21,1.78,19.85,2.72Zm-1566-3.55-1.12-4.87c6.54-1.5,13.12-3,19.57-4.36L289,30.17C282.56,31.56,276,33,269.48,34.51Zm414.17-.83q-9.85-1.89-19.63-3.8l1-4.9q9.76,1.9,19.6,3.78Zm1112.17-.91c-6.6-.83-13.28-1.65-19.85-2.43l.59-5c6.59.78,13.28,1.6,19.89,2.44Zm-457.74-2.55-.92-4.91c6.44-1.21,13.09-2.37,19.77-3.44l.79,4.94C1351.09,27.87,1344.48,29,1338.08,30.22Zm418-2.16c-6.64-.74-13.33-1.46-19.88-2.13l.51-5c6.57.68,13.27,1.4,19.92,2.14Zm-1447.6-2-1-4.9c6.58-1.33,13.2-2.61,19.67-3.82l.92,4.91C321.66,23.5,315.06,24.78,308.51,26.1ZM644.39,26q-9.84-2-19.61-4l1-4.9q9.75,2,19.6,3.94ZM1716.33,24c-6.69-.63-13.39-1.24-19.91-1.8l.43-5c6.53.56,13.25,1.17,20,1.81Zm-338.88-.05-.67-4.95c6.49-.88,13.18-1.71,19.89-2.46l.56,5C1390.56,22.21,1383.9,23,1377.45,23.9Zm299-3.39c-6.64-.51-13.35-1-19.94-1.46l.35-5c6.6.46,13.32.95,20,1.47Zm-259.43-1.08-.46-5c6.54-.6,13.26-1.15,20-1.64l.37,5C1430.25,18.29,1423.56,18.84,1417.06,19.43ZM347.79,18.77l-.85-4.92c6.67-1.14,13.35-2.22,19.85-3.22l.76,4.94C361.08,16.56,354.43,17.64,347.79,18.77Zm257.38-.7-19.59-4,1-4.89,19.59,4Zm1031.44-.29c-6.66-.39-13.38-.76-20-1.08l.24-5c6.6.32,13.34.69,20,1.08Zm-179.77-1.25-.27-5c6.54-.36,13.28-.68,20-.94l.19,5C1470.07,15.85,1463.36,16.17,1456.84,16.53Zm139.79-.7c-6.72-.26-13.45-.48-20-.66l.13-5c6.59.18,13.34.4,20.07.66ZM1496.72,15l-.12-5c6.57-.16,13.31-.27,20-.34l0,5C1510,14.69,1503.27,14.8,1496.72,15Zm59.9-.22c-6.67-.1-13.39-.17-20-.19v-5c6.61,0,13.35.09,20,.19Zm-1169.31-2-.66-5c6.7-.9,13.4-1.74,19.91-2.49l.57,5C400.65,11,394,11.82,387.31,12.72ZM566,10.34c-6.34-1-13-1.93-19.69-2.66l.54-5c6.81.74,13.53,1.65,20,2.69ZM427,8.2l-.46-5c6.76-.63,13.49-1.17,20-1.61l.34,5C440.39,7,433.7,7.58,427,8.2ZM526.52,6c-6.43-.41-13.12-.7-19.88-.86l.12-5c6.82.16,13.58.46,20.08.87Zm-59.73-.48-.2-5C473.38.24,480.13.07,486.67,0l.05,5C480.23,5.07,473.53,5.24,466.79,5.51Z"/></g></g></svg>