<svg id="Component_20_1" data-name="Component 20 – 1" xmlns="http://www.w3.org/2000/svg" width="22.055" height="26.464" viewBox="0 0 22.055 26.464">
  <g id="Component_1_1" data-name="Component 1 – 1">
    <g id="notification">
      <g id="Group_75" data-name="Group 75" transform="translate(0 3.859)">
        <g id="Group_74" data-name="Group 74" transform="translate(0)">
          <path id="Path_72" data-name="Path 72" d="M64.633,93.129l-1.894-3.156A9.381,9.381,0,0,1,61.4,85.15V82.386a7.719,7.719,0,1,0-15.438,0V85.15a9.381,9.381,0,0,1-1.335,4.823l-1.894,3.156a.551.551,0,0,0,.473.835H64.16a.551.551,0,0,0,.473-.835Zm-20.45-.268,1.393-2.321a10.474,10.474,0,0,0,1.493-5.39V82.386a6.616,6.616,0,1,1,13.232,0V85.15a10.483,10.483,0,0,0,1.492,5.39l1.394,2.321Z" transform="translate(-42.657 -74.667)" fill="#fff"/>
        </g>
      </g>
      <g id="Group_77" data-name="Group 77" transform="translate(8.822)">
        <g id="Group_76" data-name="Group 76" transform="translate(0)">
          <path id="Path_73" data-name="Path 73" d="M215.538,0a2.208,2.208,0,0,0-2.205,2.205V4.411a.551.551,0,0,0,1.1,0V2.205a1.1,1.1,0,0,1,2.205,0V4.411a.551.551,0,0,0,1.1,0V2.205A2.208,2.208,0,0,0,215.538,0Z" transform="translate(-213.333 0)" fill="#fff"/>
        </g>
      </g>
      <g id="Group_79" data-name="Group 79" transform="translate(8.271 22.054)">
        <g id="Group_78" data-name="Group 78" transform="translate(0)">
          <path id="Path_74" data-name="Path 74" d="M207.809,426.951a.552.552,0,0,0-.953.558,1.654,1.654,0,1,1-2.865,0,.552.552,0,0,0-.953-.558,2.758,2.758,0,1,0,4.77,0Z" transform="translate(-202.666 -426.68)" fill="#fff"/>
        </g>
      </g>
    </g>
    <path id="Path_185" data-name="Path 185" d="M5841,154.919l1.2,11.467" transform="translate(-5829.973 -148.728)" fill="none" stroke="#707070" stroke-width="0.25" opacity="0.25"/>
    <path id="Path_186" data-name="Path 186" d="M5841.77,154.748l-3.254,1.273s-1.507,2.089-1.541,2.191-.857,3.63-.857,3.63l-.2,5.136-2.877,5.444h20.545l-2.534-4.828-.686-2.774.275-4.417-2.226-4.178-3.322-1.478h-3.15l3.15-.439v-2.568l-1.952-1.2-1.2.925-.377,1.849Z" transform="translate(-5832.336 -150.027)" fill="#fff"/>
    <ellipse id="Ellipse_47" data-name="Ellipse 47" cx="2.593" cy="1.945" rx="2.593" ry="1.945" transform="translate(8.434 21.857)" fill="#fff"/>
  </g>
</svg>
