<svg id="CellIcon" xmlns="http://www.w3.org/2000/svg" width="15.631" height="20.842" viewBox="0 0 15.631 20.842">
  <path id="CellIcon-2" data-name="CellIcon" d="M3.962,20.637a13.526,13.526,0,0,1,0-19.129.7.7,0,0,1,.866-.1L7.466,3.058a.7.7,0,0,1,.279.853l-1.319,3.3a.7.7,0,0,1-.719.436L3.435,7.418a10.813,10.813,0,0,0,0,7.307L5.706,14.5a.7.7,0,0,1,.719.436l1.319,3.3a.7.7,0,0,1-.279.853L4.828,20.735a.7.7,0,0,1-.866-.1Zm6.1-16.75a2.607,2.607,0,0,1,0,2.648A.491.491,0,0,1,9.3,6.64l-.243-.233a.492.492,0,0,1-.092-.587,1.305,1.305,0,0,0,0-1.219.492.492,0,0,1,.092-.587L9.3,3.781a.491.491,0,0,1,.762.105ZM13.8.174a7.827,7.827,0,0,1,0,10.072.49.49,0,0,1-.714.038l-.236-.226a.489.489,0,0,1-.038-.667,6.522,6.522,0,0,0,0-8.362.489.489,0,0,1,.038-.667l.236-.226A.49.49,0,0,1,13.8.174ZM11.924,2a5.218,5.218,0,0,1,0,6.413.491.491,0,0,1-.727.053l-.237-.227a.488.488,0,0,1-.052-.648,3.913,3.913,0,0,0,0-4.768.488.488,0,0,1,.052-.648l.237-.227A.491.491,0,0,1,11.924,2Z" transform="translate(0 0)" fill="#022c44"/>
</svg>
