<svg id="CellIcon" xmlns="http://www.w3.org/2000/svg" width="25.065" height="25.063" viewBox="0 0 25.065 25.063">
  <path id="CellIcon-2" data-name="CellIcon" d="M-3300.922-102.442a23.906,23.906,0,0,1-14.469-7.284,23.915,23.915,0,0,1-7.284-14.468.861.861,0,0,1,.475-.86l4.949-2.33a.864.864,0,0,1,1.12.315l3.082,4.786a.865.865,0,0,1-.121,1.07l-1.937,1.934a.864.864,0,0,0-.247.72,10.113,10.113,0,0,0,3.055,5.743,10.113,10.113,0,0,0,5.743,3.054.86.86,0,0,0,.72-.246l1.934-1.936a.866.866,0,0,1,1.069-.121l4.787,3.082a.863.863,0,0,1,.313,1.117l-2.331,4.949a.858.858,0,0,1-.77.48A.849.849,0,0,1-3300.922-102.442Zm1.579-12.527a10.815,10.815,0,0,0-10.8-10.8.864.864,0,0,1-.864-.864.865.865,0,0,1,.864-.865,12.546,12.546,0,0,1,12.533,12.531.865.865,0,0,1-.254.612.867.867,0,0,1-.611.253A.865.865,0,0,1-3299.343-114.969Zm-4.322,0a6.487,6.487,0,0,0-6.482-6.481.865.865,0,0,1-.864-.865.864.864,0,0,1,.864-.864,8.221,8.221,0,0,1,8.211,8.21.865.865,0,0,1-.864.865A.866.866,0,0,1-3303.665-114.969Z" transform="translate(3322.68 127.5)" fill="#003149"/>
</svg>
