<svg xmlns="http://www.w3.org/2000/svg" width="13.563" height="13.563" viewBox="0 0 13.563 13.563">
  <path id="Path_48305" data-name="Path 48305" d="M7-12.031a6.573,6.573,0,0,0-3.391.916A6.852,6.852,0,0,0,1.135-8.641,6.573,6.573,0,0,0,.219-5.25a6.573,6.573,0,0,0,.916,3.391A6.852,6.852,0,0,0,3.609.615,6.573,6.573,0,0,0,7,1.531,6.573,6.573,0,0,0,10.391.615a6.852,6.852,0,0,0,2.475-2.475,6.573,6.573,0,0,0,.916-3.391,6.573,6.573,0,0,0-.916-3.391,6.852,6.852,0,0,0-2.475-2.475A6.573,6.573,0,0,0,7-12.031Zm3.336,8.559a.4.4,0,0,1,.082.246.3.3,0,0,1-.082.219L9.242-1.914a.381.381,0,0,1-.232.082.381.381,0,0,1-.232-.082L7-3.719l-1.777,1.8a.4.4,0,0,1-.246.082.3.3,0,0,1-.219-.082L3.664-3.008a.381.381,0,0,1-.082-.232.381.381,0,0,1,.082-.232l1.8-1.777-1.8-1.777a.4.4,0,0,1-.082-.246.3.3,0,0,1,.082-.219L4.758-8.586a.381.381,0,0,1,.232-.082.381.381,0,0,1,.232.082L7-6.781l1.777-1.8a.4.4,0,0,1,.246-.082.3.3,0,0,1,.219.082l1.094,1.094a.381.381,0,0,1,.082.232.381.381,0,0,1-.082.232L8.531-5.25Z" transform="translate(-0.219 12.031)" fill="#ccc"/>
</svg>
