<svg xmlns="http://www.w3.org/2000/svg" width="14.043" height="12.392" viewBox="0 0 14.043 12.392">
  <g id="FeaturedIcon" transform="translate(0.735 1.004)">
    <path id="FeaturedIcon-2" data-name="FeaturedIcon" d="M4296.994,12497.774c0-.365.007-.728.01-1.093v-.324h10.151c0,.041.009.079.009.123v1.179c0,.038.007.075.01.115Zm.052-2.17q-.667-3.523-1.329-7.047c1.245.964,2.484,1.918,3.744,2.891.882-1.532,1.745-3.034,2.623-4.562.875,1.525,1.738,3.028,2.609,4.539,1.253-.964,2.487-1.919,3.719-2.874l.036.01q-.662,3.523-1.327,7.043Z" transform="translate(-4295.717 -12486.887)" fill="#fff" stroke="rgba(0,0,0,0)" stroke-width="1"/>
  </g>
</svg>
