<svg xmlns="http://www.w3.org/2000/svg" width="17.422" height="15.28" viewBox="0 0 17.422 15.28">
  <g id="FeaturedIcon" transform="translate(0.735 1.003)">
    <path id="FeaturedIcon-2" data-name="FeaturedIcon" d="M4297.333,12500.664c0-.462.008-.921.013-1.383v-.41h12.846c0,.052.012.1.012.155v1.491c0,.049.008.1.012.146Zm.065-2.745q-.844-4.46-1.682-8.918c1.576,1.219,3.144,2.427,4.738,3.657,1.116-1.939,2.207-3.84,3.319-5.771,1.106,1.93,2.2,3.831,3.3,5.744,1.585-1.22,3.147-2.43,4.707-3.638l.045.013q-.838,4.458-1.679,8.913Z" transform="translate(-4295.717 -12486.887)" fill="#fff" stroke="rgba(0,0,0,0)" stroke-width="1"/>
  </g>
</svg>
