<svg id="Component_4_1" data-name="Component 4 – 1" xmlns="http://www.w3.org/2000/svg" width="23.25" height="23.25" viewBox="0 0 23.25 23.25">
  <path id="Path_48606" data-name="Path 48606" d="M12-20.625a11.269,11.269,0,0,0-5.812,1.57,11.747,11.747,0,0,0-4.242,4.242A11.269,11.269,0,0,0,.375-9a11.269,11.269,0,0,0,1.57,5.813A11.747,11.747,0,0,0,6.188,1.055,11.269,11.269,0,0,0,12,2.625a11.269,11.269,0,0,0,5.813-1.57,11.747,11.747,0,0,0,4.242-4.242A11.269,11.269,0,0,0,23.625-9a11.269,11.269,0,0,0-1.57-5.812,11.747,11.747,0,0,0-4.242-4.242A11.269,11.269,0,0,0,12-20.625ZM17.719-5.953a.686.686,0,0,1,.141.422.507.507,0,0,1-.141.375L15.844-3.281a.653.653,0,0,1-.4.141.653.653,0,0,1-.4-.141L12-6.375,8.953-3.281a.686.686,0,0,1-.422.141.507.507,0,0,1-.375-.141L6.281-5.156a.653.653,0,0,1-.141-.4.653.653,0,0,1,.141-.4L9.375-9,6.281-12.047a.686.686,0,0,1-.141-.422.507.507,0,0,1,.141-.375l1.875-1.875a.653.653,0,0,1,.4-.141.653.653,0,0,1,.4.141L12-11.625l3.047-3.094a.686.686,0,0,1,.422-.141.507.507,0,0,1,.375.141l1.875,1.875a.653.653,0,0,1,.141.4.653.653,0,0,1-.141.4L14.625-9Z" transform="translate(-0.375 20.625)" fill="#fff"/>
</svg>
