<svg id="Component_8_1" data-name="Component 8 – 1" xmlns="http://www.w3.org/2000/svg" width="18" height="13.5" viewBox="0 0 18 13.5">
  <path id="Path_48305" data-name="Path 48305" d="M17.648-9.035a.174.174,0,0,1,.229-.035A.228.228,0,0,1,18-8.859v7.172a1.627,1.627,0,0,1-.492,1.2,1.627,1.627,0,0,1-1.2.492H1.688a1.627,1.627,0,0,1-1.2-.492A1.627,1.627,0,0,1,0-1.687V-8.859a.193.193,0,0,1,.123-.193.227.227,0,0,1,.229.018q1.16.879,5.414,3.973l.352.316a13.985,13.985,0,0,0,1.336.914A3.293,3.293,0,0,0,9-3.375a3.121,3.121,0,0,0,1.547-.492,9.816,9.816,0,0,0,1.336-.914l.352-.281Q16.383-8.051,17.648-9.035ZM9-4.5a2.244,2.244,0,0,0,1.125-.422,8.378,8.378,0,0,0,1.09-.773l.352-.246q4.43-3.2,5.941-4.395l.176-.141A.8.8,0,0,0,18-11.145v-.668a1.627,1.627,0,0,0-.492-1.2,1.627,1.627,0,0,0-1.2-.492H1.688a1.627,1.627,0,0,0-1.2.492A1.627,1.627,0,0,0,0-11.812v.668a.8.8,0,0,0,.316.668l.246.176q1.547,1.2,5.871,4.359l.352.246a8.378,8.378,0,0,0,1.09.773A2.244,2.244,0,0,0,9-4.5Z" transform="translate(0 13.5)" fill="#022c44"/>
</svg>
