<svg id="AddIcon" xmlns="http://www.w3.org/2000/svg" width="23.143" height="23.143" viewBox="0 0 23.143 23.143">
  <path id="AddIcon-2" data-name="AddIcon" d="M18.321,23.321a.971.971,0,0,1-.964.964H13.5v3.857a.971.971,0,0,1-.964.964H10.607a.971.971,0,0,1-.964-.964V24.286H5.786a.971.971,0,0,1-.964-.964V21.393a.971.971,0,0,1,.964-.964H9.643V16.571a.971.971,0,0,1,.964-.964h1.929a.971.971,0,0,1,.964.964v3.857h3.857a.971.971,0,0,1,.964.964Zm4.821-.964A11.571,11.571,0,1,0,11.571,33.929,11.574,11.574,0,0,0,23.143,22.357Z" transform="translate(0 -10.786)" fill="#022c44"/>
</svg>
