<svg id="RemoveIcon" xmlns="http://www.w3.org/2000/svg" width="32.729" height="32.729" viewBox="0 0 32.729 32.729">
  <path id="RemoveIcon-2" data-name="RemoveIcon" d="M18.321,23.321a.971.971,0,0,1-.964.964H13.5v3.857a.971.971,0,0,1-.964.964H10.607a.971.971,0,0,1-.964-.964V24.286H5.786a.971.971,0,0,1-.964-.964V21.393a.971.971,0,0,1,.964-.964H9.643V16.571a.971.971,0,0,1,.964-.964h1.929a.971.971,0,0,1,.964.964v3.857h3.857a.971.971,0,0,1,.964.964Zm4.821-.964A11.571,11.571,0,1,0,11.571,33.929,11.574,11.574,0,0,0,23.143,22.357Z" transform="translate(-7.627 8.738) rotate(-45)" fill="#022c44"/>
</svg>
