<svg id="Component_2_1" data-name="Component 2 – 1" xmlns="http://www.w3.org/2000/svg" width="24.895" height="26.464" viewBox="0 0 24.895 26.464">
  <path id="Path_184" data-name="Path 184" d="M409.111,1554.362c0-.517,0-1.015,0-1.513a5.825,5.825,0,0,1,.646-2.767,4.281,4.281,0,0,1,2.667-2.193,6.973,6.973,0,0,1,3.939-.032,4.465,4.465,0,0,1,3.218,3.346,7.452,7.452,0,0,1,.2,2.343c-.011.265,0,.531,0,.814.088,0,.176-.006.264,0a.455.455,0,0,1,.468.427,4.761,4.761,0,0,1-.087,1.417,2.42,2.42,0,0,1-1.035,1.705.331.331,0,0,0-.1.214c-.048.4-.08.811-.127,1.216a4.409,4.409,0,0,1-.7,1.855c-.209.33-.429.653-.638.983a.513.513,0,0,0-.081.231,10.552,10.552,0,0,0,.057,2.305,1.463,1.463,0,0,0,.475.858,4.1,4.1,0,0,0,1.334.8c.883.35,1.778.672,2.659,1.026a13.316,13.316,0,0,1,2.578,1.357,4.663,4.663,0,0,1,2.041,3.7,6.578,6.578,0,0,1-.034,1.1c-.029.309-.112.392-.426.433a7.977,7.977,0,0,1-1,.065c-1.9.006-3.8,0-5.694,0q-8.005,0-16.011-.006a11.74,11.74,0,0,1-1.236-.061c-.334-.036-.416-.123-.448-.451a4.83,4.83,0,0,1,1.984-4.76,14.307,14.307,0,0,1,3.139-1.6c.837-.328,1.677-.648,2.51-.986a3.825,3.825,0,0,0,.618-.352,1.706,1.706,0,0,0,.853-1.46c.011-.668.01-1.335.008-2a.419.419,0,0,0-.077-.2c-.3-.5-.625-.982-.917-1.485a4.9,4.9,0,0,1-.5-1.994c-.022-.2-.026-.407-.049-.609a.259.259,0,0,0-.08-.171,2.544,2.544,0,0,1-1.094-2,6.759,6.759,0,0,1-.05-1.048c.022-.391.234-.539.628-.516Z" transform="translate(-402.005 -1547.589)" fill="#fff"/>
</svg>
